<?xml version="1.0" encoding="utf-8"?>
<!-- Generator: Adobe Illustrator 21.1.0, SVG Export Plug-In . SVG Version: 6.00 Build 0)  -->
<svg version="1.1" id="Layer_1" xmlns="http://www.w3.org/2000/svg" xmlns:xlink="http://www.w3.org/1999/xlink" x="0px" y="0px"
	 viewBox="0 0 78.7 75.6" style="enable-background:new 0 0 78.7 75.6;" xml:space="preserve">
<style type="text/css">
	.st0{fill:#282781;}
	.st1{fill:#EF404A;}
</style>
<g>
	<g>
		<path class="st0" d="M54.4,74.1h-3V4.3c0-0.7-0.6-1.3-1.3-1.3H10.4C9.7,3,9.1,3.6,9.1,4.3v69.8h-3V4.3C6.1,1.9,8,0,10.4,0h39.7
			c2.4,0,4.3,1.9,4.3,4.3V74.1z"/>
	</g>
	<g>
		<path class="st0" d="M59,75.6H1.5c-0.8,0-1.5-0.7-1.5-1.5s0.7-1.5,1.5-1.5H59c0.8,0,1.5,0.7,1.5,1.5S59.8,75.6,59,75.6z"/>
	</g>
	<g>
		<path class="st1" d="M44.8,33.1H15.7c-0.8,0-1.5-0.7-1.5-1.5V12c0-0.8,0.7-1.5,1.5-1.5h29.1c0.8,0,1.5,0.7,1.5,1.5v19.7
			C46.3,32.5,45.6,33.1,44.8,33.1z M17.2,30.1h26.1V13.5H17.2V30.1z"/>
	</g>
	<g>
		<path class="st0" d="M65.9,60.4c-3.1,0-5.6-2.5-5.7-5.6c0,0,0-0.1,0-0.1v-34c0-1.4-1.2-2.6-2.6-2.6h-3.8c-0.8,0-1.5-0.7-1.5-1.5
			s0.7-1.5,1.5-1.5h3.8c3.1,0,5.6,2.5,5.6,5.6v33.9c0,0,0,0.1,0,0.1c0,1.5,1.2,2.7,2.7,2.7s2.7-1.2,2.7-2.7V23.9
			c-0.1-4.4-0.1-4.4,0.4-4.9l7.1-7.1c0.6-0.6,1.5-0.6,2.1,0c0.6,0.6,0.6,1.5,0,2.1l-6.7,6.7c0,0.7,0,2,0,3.2v30.8
			C71.5,57.8,69,60.4,65.9,60.4z"/>
	</g>
</g>
</svg>
