<?xml version="1.0" encoding="utf-8"?>
<!-- Generator: Adobe Illustrator 21.1.0, SVG Export Plug-In . SVG Version: 6.00 Build 0)  -->
<svg version="1.1" id="Layer_1" xmlns="http://www.w3.org/2000/svg" xmlns:xlink="http://www.w3.org/1999/xlink" x="0px" y="0px"
	 viewBox="0 0 55 73.7" style="enable-background:new 0 0 55 73.7;" xml:space="preserve">
<style type="text/css">
	.st0{fill:#EF404A;}
	.st1{fill:#282781;}
</style>
<g>
	<g>
		<path class="st0" d="M34.6,24c-0.8,0-1.5-0.7-1.5-1.5v-4.6c0-3.1-2.5-5.6-5.6-5.6s-5.6,2.5-5.6,5.6v4.5c0,0.8-0.7,1.5-1.5,1.5
			s-1.5-0.7-1.5-1.5v-4.5c0-4.8,3.9-8.6,8.6-8.6s8.6,3.9,8.6,8.6v4.6C36.1,23.3,35.5,24,34.6,24z"/>
	</g>
	<g>
		<path class="st1" d="M50.7,73.7H4.3c-2.4,0-4.3-1.9-4.3-4.3V28.7c0-2.4,1.9-4.3,4.3-4.3h46.3c2.4,0,4.3,1.9,4.3,4.3v40.7
			C55,71.8,53,73.7,50.7,73.7z M4.3,27.4C3.6,27.4,3,28,3,28.7v40.7c0,0.7,0.6,1.3,1.3,1.3h46.3c0.7,0,1.3-0.6,1.3-1.3V28.7
			c0-0.7-0.6-1.3-1.3-1.3H4.3z"/>
	</g>
	<g>
		<path class="st1" d="M45.7,26.8h-3v-8.5C42.7,9.8,35.9,3,27.5,3S12.2,9.8,12.2,18.3v8.3h-3v-8.3C9.2,8.2,17.4,0,27.5,0
			s18.3,8.2,18.3,18.3V26.8z"/>
	</g>
	<g>
		<path class="st0" d="M27.5,51c-4,0-7.3-3.3-7.3-7.3s3.3-7.3,7.3-7.3s7.3,3.3,7.3,7.3S31.5,51,27.5,51z M27.5,39.5
			c-2.3,0-4.3,1.9-4.3,4.3s1.9,4.3,4.3,4.3s4.3-1.9,4.3-4.3S29.8,39.5,27.5,39.5z"/>
	</g>
	<g>
		<path class="st0" d="M27.5,63.3c-0.8,0-1.5-0.7-1.5-1.5V50.3c0-0.8,0.7-1.5,1.5-1.5s1.5,0.7,1.5,1.5v11.5
			C29,62.6,28.3,63.3,27.5,63.3z"/>
	</g>
</g>
</svg>
