<?xml version="1.0" encoding="UTF-8" standalone="no"?>
<svg
   xmlns:dc="http://purl.org/dc/elements/1.1/"
   xmlns:cc="http://creativecommons.org/ns#"
   xmlns:rdf="http://www.w3.org/1999/02/22-rdf-syntax-ns#"
   xmlns:svg="http://www.w3.org/2000/svg"
   xmlns="http://www.w3.org/2000/svg"
   id="svg3867"
   version="1.1"
   viewBox="0 0 11.557 10.171"
   height="10.171mm"
   width="11.557mm">
  <defs
     id="defs3861" />
  <metadata
     id="metadata3864">
    <rdf:RDF>
      <cc:Work
         rdf:about="">
        <dc:format>image/svg+xml</dc:format>
        <dc:type
           rdf:resource="http://purl.org/dc/dcmitype/StillImage" />
        <dc:title></dc:title>
      </cc:Work>
    </rdf:RDF>
  </metadata>
  <g
     transform="translate(0,-286.829)"
     id="layer1">
    <g
       transform="translate(-69.060782,179.36688)"
       id="g4437">
      <path
         id="path1453-9"
         style="fill:#ef2a44;fill-opacity:1;fill-rule:nonzero;stroke:none;stroke-width:0.35277778"
         d="m 73.836852,110.77262 c -0.1143,0 -0.20673,-0.0928 -0.20673,-0.20673 v -0.63711 c 0,-0.42828 -0.34854,-0.77682 -0.77682,-0.77682 -0.42827,0 -0.77681,0.34854 -0.77681,0.77682 v 0.6223 c 0,0.1143 -0.0924,0.20672 -0.20673,0.20672 -0.1143,0 -0.20708,-0.0924 -0.20708,-0.20672 v -0.6223 c 0,-0.65652 0.5341,-1.19063 1.19062,-1.19063 0.65652,0 1.19028,0.53411 1.19028,1.19063 v 0.63711 c 0,0.11395 -0.0924,0.20673 -0.20673,0.20673" />
      <path
         id="path1457-9"
         style="fill:#272a7c;fill-opacity:1;fill-rule:nonzero;stroke:none;stroke-width:0.35277778"
         d="m 76.047782,117.63302 h -6.38916 c -0.3295,0 -0.59761,-0.26811 -0.59761,-0.59796 v -5.61516 c 0,-0.32985 0.26811,-0.59796 0.59761,-0.59796 h 6.38916 c 0.32984,0 0.59796,0.26811 0.59796,0.59796 v 5.61516 c 0,0.32985 -0.26812,0.59796 -0.59796,0.59796 m -6.38916,-6.39727 c -0.1016,0 -0.18415,0.0825 -0.18415,0.18415 v 5.61516 c 0,0.1016 0.0826,0.18415 0.18415,0.18415 h 6.38916 c 0.1016,0 0.18415,-0.0826 0.18415,-0.18415 v -5.61516 c 0,-0.1016 -0.0825,-0.18415 -0.18415,-0.18415 z" />
      <path
         id="path1461-2"
         style="fill:#272a7c;fill-opacity:1;fill-rule:nonzero;stroke:none;stroke-width:0.35277778"
         d="m 75.370412,111.15192 h -0.41381 v -1.17228 c 0,-1.15993 -0.94368,-2.10361 -2.10326,-2.10361 -1.15994,0 -2.10362,0.94368 -2.10362,2.10361 v 1.13771 h -0.4138 v -1.13771 c 0,-1.38818 1.12924,-2.51742 2.51742,-2.51742 1.38783,0 2.51707,1.12924 2.51707,2.51742 z" />
      <path
         id="path1465-3"
         style="fill:#ef2a44;fill-opacity:1;fill-rule:nonzero;stroke:none;stroke-width:0.35277778"
         d="m 72.853272,114.49668 c -0.55139,0 -1.00013,-0.44873 -1.00013,-1.00012 0,-0.5514 0.44874,-0.99978 1.00013,-0.99978 0.55139,0 1.00012,0.44838 1.00012,0.99978 0,0.55139 -0.44873,1.00012 -1.00012,1.00012 m 0,-1.58609 c -0.32315,0 -0.58632,0.26282 -0.58632,0.58597 0,0.32349 0.26317,0.58631 0.58632,0.58631 0.32314,0 0.58631,-0.26282 0.58631,-0.58631 0,-0.32315 -0.26317,-0.58597 -0.58631,-0.58597" />
      <path
         id="path1469-0"
         style="fill:#ef2a44;fill-opacity:1;fill-rule:nonzero;stroke:none;stroke-width:0.35277778"
         d="m 72.853272,116.18627 c -0.1143,0 -0.20673,-0.0928 -0.20673,-0.20673 v -1.58644 c 0,-0.1143 0.0924,-0.20673 0.20673,-0.20673 0.1143,0 0.20673,0.0924 0.20673,0.20673 v 1.58644 c 0,0.11395 -0.0924,0.20673 -0.20673,0.20673" />
      <path
         id="path1473-7"
         style="fill:#ef2a44;fill-opacity:1;fill-rule:nonzero;stroke:none;stroke-width:0.35277778"
         d="m 75.725232,112.12114 c 0,0 -0.63006,0 -0.63006,0.63006 v 1.38218 c 0,0 0,0.63007 0.63006,0.63007 h 4.26226 c 0,0 0.63006,0 0.63006,-0.63007 v -1.38218 c 0,0 0,-0.63006 -0.63006,-0.63006 z" />
      <path
         id="path1477-9"
         style="fill:#ffffff;fill-opacity:1;fill-rule:nonzero;stroke:none;stroke-width:0.35277778"
         d="m 77.378282,114.27559 v -0.17145 l -0.0243,-0.0243 h -0.80927 l -0.0243,-0.0247 v -1.44639 l -0.0247,-0.0244 h -0.19579 l -0.0243,0.0244 v 1.66687 l 0.0243,0.0243 h 1.0541 z m 1.5688,-1.20121 c 0,-0.34325 -0.22013,-0.49001 -0.56338,-0.49001 h -0.75989 l -0.0247,0.0244 v 1.66687 l 0.0247,0.0243 h 0.19579 l 0.0243,-0.0243 v -0.68651 l 0.0247,-0.0243 h 0.51506 c 0.31856,0 0.56339,-0.14711 0.56339,-0.49036 m -0.24483,0 c 0,0.1965 -0.0981,0.26988 -0.31856,0.26988 h -0.51506 l -0.0247,-0.0243 v -0.49072 l 0.0247,-0.0247 h 0.51506 c 0.22049,0 0.31856,0.0737 0.31856,0.26987 m 0.73519,1.20121 v -1.66687 l -0.0243,-0.0244 h -0.19615 l -0.0243,0.0244 v 1.66687 l 0.0243,0.0243 h 0.19615 z" />
    </g>
  </g>
</svg>
