<?xml version="1.0" encoding="utf-8"?>
<!-- Generator: Adobe Illustrator 21.1.0, SVG Export Plug-In . SVG Version: 6.00 Build 0)  -->
<svg version="1.1" id="Layer_1" xmlns="http://www.w3.org/2000/svg" xmlns:xlink="http://www.w3.org/1999/xlink" x="0px" y="0px"
	 viewBox="0 0 579.7 102.9" style="enable-background:new 0 0 579.7 102.9;" xml:space="preserve">
<style type="text/css">
	.st0{fill:#FFFFFF;}
</style>
<g>
	<g>
		<path class="st0" d="M233.2,67c1.1,0,1.8,0.9,1.6,2l0,0c-1.4,7.9,4.2,9.8,14.2,9.8c9.9,0,16.3-2,17.3-7.9
			c1.4-7.9-6.6-7.9-18.1-9.8c-11.6-2-36.4-7.9-32.2-31.5C218.8,13.8,233.2,0,263,0c23.9,0,40,9.9,36.5,29.5l0,0
			c-0.2,1.1-1.2,2-2.3,2l0,0h-23.9l0,0c-1.1,0-1.8-0.9-1.6-2l0,0c0.7-3.9-2.9-5.9-12.9-5.9c-9.9,0-14.3,2-15.3,7.9
			c-1.4,7.9,10.5,7.9,22.1,9.8c11.6,2,32.8,5.9,28.6,29.5c-2.8,15.8-17.5,31.5-49.4,31.5c-27.8,0-41.3-13.8-37.8-33.5l0,0
			c0.2-1.1,1.2-2,2.3-2l0,0L233.2,67L233.2,67z"/>
		<path class="st0" d="M326.8,100.4h-24.9h0c-1.1,0-1.8-0.9-1.6-2l0,0l16.9-93.9l0,0c0.2-1.1,1.2-2,2.3-2h0h25c1.1,0,1.8,0.9,1.6,2
			l0,0l-16.9,93.8l0,0C328.9,99.6,327.9,100.4,326.8,100.4L326.8,100.4z"/>
		<path class="st0" d="M66.3,41.6H34.6l0,0c-1.1,0-1.8-0.9-1.6-2l0,0c0.3-2,4.8-15.7,20.7-15.7S69,37.7,68.6,39.6l0,0
			C68.4,40.7,67.4,41.6,66.3,41.6L66.3,41.6z M31.1,61.3h61.5l-0.1,0c1.1,0,2.1-0.9,2.3-2l0,0l1.4-7.9c4.9-27.5-6.8-51.1-38.5-51.1
			C26,0.3,6,23.9,1.1,51.4c-4.9,27.5,6.8,51.1,40.5,51.1c29.5,0,42.6-17.4,46.8-29.2l0,0c0-0.1,0.1-0.2,0.1-0.3c0.2-1.1-0.5-2-1.6-2
			l0.1,0H63.3l0,0c-0.8,0-1.6,0.5-2,1.1l0,0l-0.5,0.8c-2.7,3.9-9,5.9-14.9,5.9c-15.9,0-17.7-11.8-17-15.7l0,0
			C28.9,62.1,30,61.3,31.1,61.3L31.1,61.3z"/>
		<path class="st0" d="M378,85.2c0,9-7.4,16.3-16.5,16.3c-9.1,0-16.5-7.3-16.5-16.3s7.4-16.3,16.5-16.3
			C370.7,68.9,378,76.2,378,85.2"/>
		<path class="st0" d="M171.5,51.4c-3,17.1-11.7,26.4-23.4,26.4c-11.9,0-16.8-9.4-13.8-26.4c3-17.1,11.2-26.2,23.2-26.2
			C169.2,25.2,174.5,34.5,171.5,51.4 M206.5,2.8L206.5,2.8h-25.3l0,0c-1.2,0-2.2,0.8-2.4,1.9v0l-2.2,12.5
			c-2.9-11.4-11.3-17.1-24.3-17.1c-23.8,0-42.9,20.5-48.3,51.2c-5.5,30.9,6.2,51.5,30,51.5c9.8,0,18.1-3.4,24.6-9.8
			c2.1-2.1,4-4.5,5.7-7.3l-1.7,9.3l-0.4,2.3l0,0c0,0.1,0,0.3,0,0.5c0,1.3,1.1,2.4,2.4,2.4l0,0H190l0,0c1.2,0,2.2-0.9,2.4-2l0,0
			l16.5-92.6l0,0c0-0.1,0-0.3,0-0.4C208.9,3.9,207.8,2.8,206.5,2.8"/>
	</g>
	<g>
		<path class="st0" d="M448.5,52.4h-26.4l-0.8,0.8v16l0.8,0.8h24.8l0.8,0.8v5.6l-0.8,0.8h-24.8l-0.8,0.8v22.4l-0.8,0.8h-6.4
			l-0.8-0.8V46l0.8-0.8h34.4l0.8,0.8v5.6L448.5,52.4z"/>
		<path class="st0" d="M464.5,101.2h-6.4l-0.8-0.8V46l0.8-0.8h6.4l0.8,0.8v54.4L464.5,101.2z"/>
		<path class="st0" d="M472.5,81.2c0-11.2,5.6-20.8,18.4-20.8c12.8,0,18.4,9.6,18.4,20.8v2.4l-0.8,0.8h-26.4l-0.8,0.8
			c0,1.6,0.8,9.6,10.4,9.6c3.2,0,6.4-0.8,8-4.8l0.8-0.8h6.4l0.8,0.8c-0.8,6.4-6.4,12-16,12C478.9,102,472.5,93.2,472.5,81.2z
			 M500.5,77.2c0-2.4-0.8-9.6-9.6-9.6c-8.8,0-9.6,7.2-9.6,9.6l0.8,0.8h17.6L500.5,77.2z"/>
		<path class="st0" d="M514.1,81.2c0-11.2,5.6-20.8,18.4-20.8c12.8,0,18.4,9.6,18.4,20.8v2.4l-0.8,0.8h-26.4l-0.8,0.8
			c0,1.6,0.8,9.6,10.4,9.6c3.2,0,6.4-0.8,8-4.8l0.8-0.8h6.4l0.8,0.8c-0.8,6.4-6.4,12-16,12C520.5,102,514.1,93.2,514.1,81.2z
			 M542.1,77.2c0-2.4-0.8-9.6-9.6-9.6c-8.8,0-9.6,7.2-9.6,9.6l0.8,0.8h17.6L542.1,77.2z"/>
		<path class="st0" d="M578.9,101.2h-6.4c-5.6,0-11.2-3.2-11.2-10.4V69.2l-0.8-0.8h-5.6l-0.8-0.8V62l0.8-0.8h5.6l0.8-0.8v-7.2
			l0.8-0.8h6.4l0.8,0.8v7.2l0.8,0.8h8.8l0.8,0.8v5.6l-0.8,0.8h-8.8l-0.8,0.8v21.6c0,2.4,1.6,3.2,3.2,3.2h6.4l0.8,0.8v5.6
			L578.9,101.2z"/>
	</g>
</g>
</svg>
