<?xml version="1.0" encoding="utf-8"?>
<!-- Generator: Adobe Illustrator 23.0.2, SVG Export Plug-In . SVG Version: 6.00 Build 0)  -->
<svg version="1.1" id="Layer_1" xmlns="http://www.w3.org/2000/svg" xmlns:xlink="http://www.w3.org/1999/xlink" x="0px" y="0px"
	 viewBox="0 0 72.92 70.54" style="enable-background:new 0 0 72.92 70.54;" xml:space="preserve">
<style type="text/css">
	.st0{fill:#282781;}
	.st1{fill:#EF404A;}
</style>
<g>
	<path class="st0" d="M29.36,37.04c10.21,0,18.52-8.31,18.52-18.52S39.57,0,29.36,0C19.15,0,10.84,8.31,10.84,18.52
		S19.15,37.04,29.36,37.04z M29.36,3c8.56,0,15.52,6.96,15.52,15.52s-6.96,15.52-15.52,15.52c-8.56,0-15.52-6.96-15.52-15.52
		S20.8,3,29.36,3z"/>
	<path class="st0" d="M72.92,47.27c0-7.7-6.26-13.96-13.96-13.96c-5.06,0-9.49,2.72-11.94,6.76c-3.35-1.94-6.12-2.1-6.26-2.11
		c-0.39-0.02-0.77,0.11-1.06,0.37l-10.16,8.85L19.4,38.33c-0.29-0.25-0.68-0.39-1.06-0.37c-0.19,0.01-4.81,0.28-9.39,4.4
		C3.01,47.7,0,56.68,0,69.04c0,0.83,0.67,1.5,1.5,1.5h56.11c0.83,0,1.5-0.67,1.5-1.5c0-2.77-0.16-5.39-0.47-7.83
		c0.11,0,0.21,0.02,0.32,0.02C66.66,61.23,72.92,54.97,72.92,47.27z M58.96,36.31c6.04,0,10.96,4.92,10.96,10.96
		S65,58.23,58.96,58.23C52.92,58.23,48,53.31,48,47.27S52.92,36.31,58.96,36.31z M56.09,67.54H3.02
		C3.5,44.68,15.17,41.46,17.93,41.02l10.64,9.27c0.56,0.49,1.41,0.49,1.97,0l10.63-9.26c0.85,0.15,2.6,0.58,4.58,1.77
		c-0.48,1.4-0.75,2.9-0.75,4.47c0,6.52,4.5,11.99,10.55,13.52C55.86,62.89,56.04,65.15,56.09,67.54z"/>
</g>
<g>
	<path class="st1" d="M59.13,40.03c0.4,0,0.72,0.32,0.72,0.72v0.37c0.99,0.12,1.82,0.43,2.59,0.92c0.27,0.15,0.5,0.4,0.5,0.8
		c0,0.52-0.42,0.92-0.94,0.92c-0.17,0-0.33-0.05-0.5-0.15c-0.58-0.35-1.15-0.6-1.72-0.74v3.21c2.54,0.64,3.63,1.65,3.63,3.44
		c0,1.84-1.44,3.06-3.56,3.26v1c0,0.4-0.32,0.72-0.72,0.72c-0.4,0-0.74-0.32-0.74-0.72v-1.04c-1.25-0.13-2.41-0.58-3.43-1.3
		c-0.28-0.19-0.45-0.45-0.45-0.8c0-0.52,0.4-0.92,0.92-0.92c0.2,0,0.4,0.07,0.55,0.18c0.79,0.57,1.55,0.95,2.47,1.12v-3.29
		c-2.44-0.64-3.58-1.55-3.58-3.44c0-1.79,1.42-3.02,3.51-3.19v-0.35C58.39,40.35,58.73,40.03,59.13,40.03z M58.46,45.73v-2.96
		c-1.07,0.1-1.6,0.67-1.6,1.4C56.86,44.88,57.17,45.31,58.46,45.73z M59.78,48.05v3.04c1.07-0.12,1.65-0.65,1.65-1.45
		C61.43,48.91,61.07,48.46,59.78,48.05z"/>
</g>
</svg>
