<?xml version="1.0" encoding="utf-8"?>
<!-- Generator: Adobe Illustrator 21.1.0, SVG Export Plug-In . SVG Version: 6.00 Build 0)  -->
<svg version="1.1" id="Layer_1" xmlns="http://www.w3.org/2000/svg" xmlns:xlink="http://www.w3.org/1999/xlink" x="0px" y="0px"
	 viewBox="0 0 57.8 75.6" style="enable-background:new 0 0 57.8 75.6;" xml:space="preserve">
<style type="text/css">
	.st0{fill:#282781;}
	.st1{fill:#EF404A;}
</style>
<g>
	<g>
		<path class="st0" d="M53.5,75.6H4.3c-2.4,0-4.3-1.9-4.3-4.3V4.3C0,1.9,1.9,0,4.3,0h49.1c2.4,0,4.3,1.9,4.3,4.3v66.9
			C57.8,73.7,55.9,75.6,53.5,75.6z M4.3,3C3.6,3,3,3.6,3,4.3v66.9c0,0.7,0.6,1.3,1.3,1.3h49.1c0.7,0,1.3-0.6,1.3-1.3V4.3
			c0-0.7-0.6-1.3-1.3-1.3H4.3z"/>
	</g>
	<g>
		<path class="st1" d="M45.9,17.6h-34c-0.8,0-1.5-0.7-1.5-1.5s0.7-1.5,1.5-1.5h34c0.8,0,1.5,0.7,1.5,1.5S46.7,17.6,45.9,17.6z"/>
	</g>
	<g>
		<path class="st1" d="M45.9,28.4h-34c-0.8,0-1.5-0.7-1.5-1.5s0.7-1.5,1.5-1.5h34c0.8,0,1.5,0.7,1.5,1.5S46.7,28.4,45.9,28.4z"/>
	</g>
	<g>
		<path class="st1" d="M45.9,39.3h-34c-0.8,0-1.5-0.7-1.5-1.5s0.7-1.5,1.5-1.5h34c0.8,0,1.5,0.7,1.5,1.5S46.7,39.3,45.9,39.3z"/>
	</g>
	<g>
		<path class="st1" d="M45.9,50.2h-34c-0.8,0-1.5-0.7-1.5-1.5s0.7-1.5,1.5-1.5h34c0.8,0,1.5,0.7,1.5,1.5S46.7,50.2,45.9,50.2z"/>
	</g>
	<g>
		<path class="st1" d="M37.9,61.1h-26c-0.8,0-1.5-0.7-1.5-1.5s0.7-1.5,1.5-1.5h26c0.8,0,1.5,0.7,1.5,1.5S38.7,61.1,37.9,61.1z"/>
	</g>
</g>
</svg>
