<?xml version="1.0" encoding="utf-8"?>
<!-- Generator: Adobe Illustrator 21.1.0, SVG Export Plug-In . SVG Version: 6.00 Build 0)  -->
<svg version="1.1" id="Layer_1" xmlns="http://www.w3.org/2000/svg" xmlns:xlink="http://www.w3.org/1999/xlink" x="0px" y="0px"
	 viewBox="0 0 82.4 63.6" style="enable-background:new 0 0 82.4 63.6;" xml:space="preserve">
<style type="text/css">
	.st0{fill:#EF404A;}
	.st1{fill:#282781;}
</style>
<g>
	<path class="st0" d="M72.4,6.8C72.4,6.8,72.4,6.8,72.4,6.8l0-5.3c0-0.8-0.7-1.5-1.5-1.5H60.4c-0.8,0-1.5,0.7-1.5,1.5v5.3
		c0,0,0,0.1,0,0.1H72.4z M61.9,3h7.5v2.3h-7.5V3z"/>
	<path class="st0" d="M23.4,6.8C23.4,6.8,23.4,6.8,23.4,6.8l0-5.3c0-0.8-0.7-1.5-1.5-1.5H11.4c-0.8,0-1.5,0.7-1.5,1.5v5.3
		c0,0,0,0.1,0,0.1H23.4z M12.9,3h7.5v2.3h-7.5V3z"/>
	<g>
		<path class="st1" d="M78,20.4H4.3C1.9,20.4,0,18.4,0,16V9.6c0-2.4,1.9-4.3,4.3-4.3H78c2.4,0,4.3,1.9,4.3,4.3V16
			C82.4,18.4,80.4,20.4,78,20.4z M4.3,8.2C3.6,8.2,3,8.8,3,9.6V16c0,0.7,0.6,1.3,1.3,1.3H78c0.7,0,1.3-0.6,1.3-1.3V9.6
			c0-0.7-0.6-1.3-1.3-1.3H4.3z"/>
	</g>
	<g>
		<path class="st0" d="M67.7,29.3h-53c-0.8,0-1.5-0.7-1.5-1.5s0.7-1.5,1.5-1.5h53c0.8,0,1.5,0.7,1.5,1.5S68.5,29.3,67.7,29.3z"/>
	</g>
	<g>
		<path class="st0" d="M37.1,54.4c-0.4,0-0.8-0.1-1.1-0.4c-0.6-0.6-0.6-1.5,0-2.1l6.7-6.7H36c-0.6,0-1.2-0.4-1.4-0.9
			s-0.1-1.2,0.3-1.6l7.7-7.7c0.6-0.6,1.5-0.6,2.1,0c0.6,0.6,0.6,1.5,0,2.1l-5.2,5.2h6.8c0.6,0,1.2,0.4,1.4,0.9s0.1,1.2-0.3,1.6
			L38.2,54C37.9,54.3,37.5,54.4,37.1,54.4z"/>
	</g>
	<path class="st1" d="M76,18.5v40.7c0,0.7-0.6,1.3-1.3,1.3H7.7c-0.7,0-1.3-0.6-1.3-1.3V18.5h-3v40.7c0,2.4,1.9,4.3,4.3,4.3h66.9
		c2.4,0,4.3-1.9,4.3-4.3V18.5H76z"/>
</g>
</svg>
