<?xml version="1.0" encoding="utf-8"?>
<!-- Generator: Adobe Illustrator 21.1.0, SVG Export Plug-In . SVG Version: 6.00 Build 0)  -->
<svg version="1.1" id="Layer_1" xmlns="http://www.w3.org/2000/svg" xmlns:xlink="http://www.w3.org/1999/xlink" x="0px" y="0px"
	 viewBox="0 0 80.9 81.7" style="enable-background:new 0 0 80.9 81.7;" xml:space="preserve">
<style type="text/css">
	.st0{fill:#282781;}
	.st1{fill:#EF404A;}
</style>
<g>
	<g>
		<path class="st0" d="M65.7,78.4c-2.9,0-5.7-1.1-7.8-3.2c-2.3-2.3-3.5-5.6-3.2-8.8L27.5,39.1c-7.4,3.2-16,1.6-21.8-4.1
			c-6-6-7.5-15.2-3.6-22.7c0.2-0.4,0.6-0.7,1.1-0.8c0.5-0.1,1,0.1,1.3,0.4l9.3,9.3l5.9-5.9l-9.3-9.3C10.1,5.6,9.9,5.1,10,4.6
			s0.4-0.9,0.8-1.1c7.6-3.8,16.7-2.4,22.7,3.6l0,0c5.8,5.8,7.3,14.4,4.1,21.8l27.5,27.5c3.1-0.2,6.1,1,8.4,3.2
			c2.1,2.1,3.2,4.8,3.2,7.8c0,2.9-1.1,5.7-3.2,7.8C71.4,77.2,68.6,78.4,65.7,78.4z M27.8,35.8c0.4,0,0.8,0.2,1.1,0.4l28.5,28.5
			c0.3,0.3,0.5,0.8,0.4,1.3c-0.4,2.6,0.4,5.2,2.2,7c1.5,1.5,3.5,2.3,5.7,2.3c2.1,0,4.2-0.8,5.7-2.3s2.3-3.5,2.3-5.7
			c0-2.1-0.8-4.2-2.3-5.7c-1.7-1.7-4.2-2.6-6.6-2.3c-0.5,0.1-0.9-0.1-1.2-0.4L34.8,30.3c-0.5-0.5-0.6-1.2-0.3-1.7
			c3.2-6.4,2-14.2-3.1-19.3c-4.6-4.6-11.3-6-17.3-3.9l8.8,8.8c0.6,0.6,0.6,1.5,0,2.1l-8,8c-0.6,0.6-1.5,0.6-2.1,0L4,15.5
			c-2.1,6-0.7,12.7,3.9,17.3c5.1,5.1,12.8,6.3,19.3,3.1C27.4,35.8,27.6,35.8,27.8,35.8z"/>
	</g>
	<g>
		<path class="st1" d="M27.8,30.1c-0.4,0-0.8-0.1-1.1-0.4c-0.6-0.6-0.6-1.5,0-2.1c3.7-3.7,3.7-9.7,0-13.4c-0.6-0.6-0.6-1.5,0-2.1
			c0.6-0.6,1.5-0.6,2.1,0c4.9,4.9,4.9,12.8,0,17.7C28.5,29.9,28.2,30.1,27.8,30.1z"/>
	</g>
	<g>
		<path class="st1" d="M18.1,72c-4.1,0-7.4-3.3-7.4-7.4s3.3-7.4,7.4-7.4s7.4,3.3,7.4,7.4S22.2,72,18.1,72z M18.1,60.2
			c-2.4,0-4.4,2-4.4,4.4s2,4.4,4.4,4.4s4.4-2,4.4-4.4S20.5,60.2,18.1,60.2z"/>
	</g>
	<g>
		<path class="st0" d="M18.1,80.6c-8.8,0-16-7.2-16-16s7.2-16,16-16s16,7.2,16,16S26.9,80.6,18.1,80.6z M18.1,51.6
			c-7.2,0-13,5.8-13,13s5.8,13,13,13s13-5.8,13-13S25.3,51.6,18.1,51.6z"/>
	</g>
	<g>
		<path class="st0" d="M18.1,81.7c-0.8,0-1.5-0.7-1.5-1.5c0-0.8,0.7-1.5,1.5-1.5c1.5,0,3-0.2,4.4-0.7c0.8-0.3,1.6,0.2,1.9,1
			c0.3,0.8-0.2,1.6-1,1.9C21.7,81.4,19.9,81.7,18.1,81.7L18.1,81.7z M13.3,80.9c-0.2,0-0.3,0-0.5-0.1c-1.7-0.6-3.3-1.4-4.8-2.4
			c-0.7-0.5-0.8-1.4-0.3-2.1c0.5-0.7,1.4-0.8,2.1-0.3c1.2,0.9,2.5,1.5,3.9,2c0.8,0.3,1.2,1.1,1,1.9C14.5,80.5,13.9,80.9,13.3,80.9z
			 M27.3,78.7c-0.5,0-0.9-0.2-1.2-0.6c-0.5-0.7-0.3-1.6,0.3-2.1c1.2-0.9,2.2-1.9,3.1-3.1c0.5-0.7,1.4-0.8,2.1-0.3
			c0.7,0.5,0.8,1.4,0.3,2.1c-1.1,1.5-2.3,2.7-3.8,3.8C27.9,78.6,27.6,78.7,27.3,78.7z M5.5,75.3c-0.5,0-0.9-0.2-1.2-0.6
			c-1.1-1.5-1.9-3.1-2.4-4.8c-0.3-0.8,0.2-1.6,1-1.9c0.8-0.3,1.6,0.2,1.9,1c0.5,1.4,1.1,2.7,2,3.9c0.5,0.7,0.3,1.6-0.3,2.1
			C6.1,75.2,5.8,75.3,5.5,75.3z M32.9,70.9c-0.2,0-0.3,0-0.5-0.1c-0.8-0.3-1.2-1.1-1-1.9c0.5-1.4,0.7-2.9,0.7-4.4
			c0-0.8,0.7-1.5,1.5-1.5s1.5,0.6,1.5,1.5v0.1c0,1.8-0.3,3.6-0.8,5.3C34.2,70.5,33.6,70.9,32.9,70.9z M2.5,66.1
			c-0.8,0-1.5-0.7-1.5-1.5v0c0-1.8,0.3-3.6,0.8-5.2c0.3-0.8,1.1-1.2,1.9-1c0.8,0.3,1.2,1.1,1,1.9C4.2,61.7,4,63.1,4,64.6
			C4,65.4,3.3,66.1,2.5,66.1z M32.9,61.2c-0.6,0-1.2-0.4-1.4-1c-0.5-1.4-1.1-2.7-2-3.9c-0.5-0.7-0.3-1.6,0.3-2.1
			c0.7-0.5,1.6-0.3,2.1,0.3c1.1,1.5,1.9,3.1,2.4,4.8c0.3,0.8-0.2,1.6-1,1.9C33.2,61.2,33.1,61.2,32.9,61.2z M5.5,57
			c-0.3,0-0.6-0.1-0.9-0.3c-0.7-0.5-0.8-1.4-0.3-2.1c1.1-1.5,2.3-2.7,3.8-3.8c0.7-0.5,1.6-0.3,2.1,0.3c0.5,0.7,0.3,1.6-0.3,2.1
			c-1.2,0.9-2.2,1.9-3.1,3.1C6.4,56.7,5.9,57,5.5,57z M27.2,53.4c-0.3,0-0.6-0.1-0.9-0.3c-1.2-0.9-2.5-1.5-3.9-2
			c-0.8-0.3-1.2-1.1-1-1.9c0.3-0.8,1.1-1.2,1.9-1c1.7,0.5,3.3,1.4,4.8,2.4c0.7,0.5,0.8,1.4,0.3,2.1C28.1,53.2,27.7,53.4,27.2,53.4z
			 M13.2,51.3c-0.6,0-1.2-0.4-1.4-1c-0.3-0.8,0.2-1.6,1-1.9c1.7-0.6,3.5-0.8,5.3-0.8c0,0,0,0,0,0c0.8,0,1.5,0.7,1.5,1.5
			c0,0.8-0.7,1.5-1.5,1.5c-1.5,0-3,0.2-4.3,0.7C13.6,51.2,13.4,51.3,13.2,51.3z"/>
	</g>
	<g>
		<path class="st1" d="M63.8,24.5c-4.1,0-7.4-3.3-7.4-7.4s3.3-7.4,7.4-7.4s7.4,3.3,7.4,7.4S67.8,24.5,63.8,24.5z M63.8,12.7
			c-2.4,0-4.4,2-4.4,4.4s2,4.4,4.4,4.4s4.4-2,4.4-4.4S66.2,12.7,63.8,12.7z"/>
	</g>
	<g>
		<path class="st0" d="M63.8,33.1c-8.8,0-16-7.2-16-16s7.2-16,16-16s16,7.2,16,16S72.6,33.1,63.8,33.1z M63.8,4.1
			c-7.2,0-13,5.8-13,13s5.8,13,13,13s13-5.8,13-13S70.9,4.1,63.8,4.1z"/>
	</g>
	<g>
		<path class="st0" d="M63.8,34.2c-0.8,0-1.5-0.7-1.5-1.5c0-0.8,0.7-1.5,1.5-1.5c1.5,0,3-0.2,4.4-0.7c0.8-0.3,1.6,0.2,1.9,1
			c0.3,0.8-0.2,1.6-1,1.9C67.4,33.9,65.6,34.2,63.8,34.2L63.8,34.2z M59,33.4c-0.2,0-0.3,0-0.5-0.1c-1.7-0.6-3.3-1.4-4.8-2.4
			c-0.7-0.5-0.8-1.4-0.3-2.1c0.5-0.7,1.4-0.8,2.1-0.3c1.2,0.9,2.5,1.5,3.9,2c0.8,0.3,1.2,1.1,1,1.9C60.2,33,59.6,33.4,59,33.4z
			 M72.9,31.2c-0.5,0-0.9-0.2-1.2-0.6c-0.5-0.7-0.3-1.6,0.3-2.1c1.2-0.9,2.2-1.9,3.1-3.1c0.5-0.7,1.4-0.8,2.1-0.3
			c0.7,0.5,0.8,1.4,0.3,2.1c-1.1,1.5-2.3,2.7-3.8,3.8C73.6,31.1,73.3,31.2,72.9,31.2z M51.2,27.8c-0.5,0-0.9-0.2-1.2-0.6
			c-1.1-1.5-1.9-3.1-2.4-4.8c-0.3-0.8,0.2-1.6,1-1.9c0.8-0.3,1.6,0.2,1.9,1c0.5,1.4,1.1,2.7,2,3.9c0.5,0.7,0.3,1.6-0.3,2.1
			C51.8,27.7,51.5,27.8,51.2,27.8z M78.6,23.4c-0.2,0-0.3,0-0.5-0.1c-0.8-0.3-1.2-1.1-1-1.9c0.5-1.4,0.7-2.9,0.7-4.4
			c0-0.8,0.7-1.5,1.5-1.5s1.5,0.6,1.5,1.5v0.1c0,1.8-0.3,3.6-0.8,5.3C79.8,23,79.2,23.4,78.6,23.4z M48.2,18.6
			c-0.8,0-1.5-0.7-1.5-1.5v0c0-1.8,0.3-3.6,0.8-5.2c0.3-0.8,1.1-1.2,1.9-1c0.8,0.3,1.2,1.1,1,1.9c-0.4,1.4-0.7,2.8-0.7,4.3
			C49.7,17.9,49,18.6,48.2,18.6z M78.6,13.7c-0.6,0-1.2-0.4-1.4-1c-0.5-1.4-1.1-2.7-2-3.9c-0.5-0.7-0.3-1.6,0.3-2.1
			c0.7-0.5,1.6-0.3,2.1,0.3c1.1,1.5,1.9,3,2.4,4.8c0.3,0.8-0.2,1.6-1,1.9C78.9,13.7,78.7,13.7,78.6,13.7z M51.1,9.5
			c-0.3,0-0.6-0.1-0.9-0.3c-0.7-0.5-0.8-1.4-0.3-2.1c1.1-1.5,2.3-2.7,3.8-3.8c0.7-0.5,1.6-0.3,2.1,0.3s0.3,1.6-0.3,2.1
			c-1.2,0.9-2.2,1.9-3.1,3.1C52.1,9.2,51.6,9.5,51.1,9.5z M72.9,5.9c-0.3,0-0.6-0.1-0.9-0.3c-1.2-0.9-2.5-1.5-3.9-2
			c-0.8-0.3-1.2-1.1-1-1.9c0.3-0.8,1.1-1.2,1.9-1c1.7,0.5,3.3,1.4,4.8,2.4c0.7,0.5,0.8,1.4,0.3,2.1C73.8,5.7,73.4,5.9,72.9,5.9z
			 M58.9,3.8c-0.6,0-1.2-0.4-1.4-1c-0.3-0.8,0.2-1.6,1-1.9C60.1,0.3,61.9,0,63.7,0c0,0,0,0,0,0c0.8,0,1.5,0.7,1.5,1.5
			c0,0.8-0.7,1.5-1.5,1.5c-1.5,0-3,0.2-4.3,0.7C59.2,3.7,59.1,3.8,58.9,3.8z"/>
	</g>
</g>
</svg>
