<?xml version="1.0" encoding="utf-8"?>
<!-- Generator: Adobe Illustrator 21.1.0, SVG Export Plug-In . SVG Version: 6.00 Build 0)  -->
<svg version="1.1" id="Layer_1" xmlns="http://www.w3.org/2000/svg" xmlns:xlink="http://www.w3.org/1999/xlink" x="0px" y="0px"
	 viewBox="0 0 74 74" style="enable-background:new 0 0 74 74;" xml:space="preserve">
<style type="text/css">
	.st0{fill:#282781;}
	.st1{fill:#EF404A;}
</style>
<g>
	<g>
		<path class="st0" d="M37,74C16.6,74,0,57.4,0,37S16.6,0,37,0s37,16.6,37,37S57.4,74,37,74z M37,3C18.3,3,3,18.3,3,37
			s15.3,34,34,34s34-15.3,34-34S55.7,3,37,3z"/>
	</g>
	<g>
		<path class="st1" d="M37,47c-5.5,0-10-4.5-10-10s4.5-10,10-10s10,4.5,10,10S42.5,47,37,47z M37,30c-3.9,0-7,3.1-7,7s3.1,7,7,7
			s7-3.1,7-7S40.9,30,37,30z"/>
	</g>
	<g>
		<path class="st1" d="M37,61.2c-13.3,0-24.2-10.8-24.2-24.2S23.7,12.8,37,12.8S61.2,23.7,61.2,37S50.3,61.2,37,61.2z M37,15.8
			c-11.7,0-21.2,9.5-21.2,21.2S25.3,58.2,37,58.2S58.2,48.7,58.2,37S48.7,15.8,37,15.8z"/>
	</g>
	<g>
		<path class="st1" d="M36.8,29.8c-0.8,0-1.5-0.7-1.5-1.5v-7.7c0-0.8,0.7-1.5,1.5-1.5s1.5,0.7,1.5,1.5v7.7
			C38.3,29.1,37.7,29.8,36.8,29.8z"/>
	</g>
	<g>
		<path class="st1" d="M36.8,55c-0.8,0-1.5-0.7-1.5-1.5v-7.7c0-0.8,0.7-1.5,1.5-1.5s1.5,0.7,1.5,1.5v7.7C38.3,54.3,37.7,55,36.8,55z
			"/>
	</g>
	<g>
		<path class="st1" d="M28,38.5h-7.7c-0.8,0-1.5-0.7-1.5-1.5s0.7-1.5,1.5-1.5H28c0.8,0,1.5,0.7,1.5,1.5S28.9,38.5,28,38.5z"/>
	</g>
	<g>
		<path class="st1" d="M53.3,38.5h-7.7c-0.8,0-1.5-0.7-1.5-1.5s0.7-1.5,1.5-1.5h7.7c0.8,0,1.5,0.7,1.5,1.5S54.1,38.5,53.3,38.5z"/>
	</g>
</g>
</svg>
